<?xml version="1.0" standalone="no"?>
<!DOCTYPE svg PUBLIC "-//W3C//DTD SVG 20010904//EN"
 "http://www.w3.org/TR/2001/REC-SVG-20010904/DTD/svg10.dtd">
<svg version="1.0" xmlns="http://www.w3.org/2000/svg"
 width="60.000000pt" height="60.000000pt" viewBox="0 0 60.000000 60.000000"
 preserveAspectRatio="xMidYMid meet">

<g transform="translate(0.000000,60.000000) scale(0.100000,-0.100000)"
fill="#000000" stroke="none">
<path d="M213 586 c-98 -32 -171 -107 -199 -204 -58 -199 109 -400 314 -379
244 25 355 314 193 500 -68 77 -210 115 -308 83z m192 -46 c99 -42 155 -130
155 -240 0 -151 -110 -261 -261 -261 -189 -1 -316 194 -240 367 26 59 52 88
107 120 75 44 159 49 239 14z"/>
<path d="M222 531 c-175 -62 -224 -272 -93 -402 133 -134 352 -78 405 102 20
65 20 73 0 138 -39 134 -182 209 -312 162z m33 -131 c3 -6 -1 -7 -9 -4 -18 7
-21 14 -7 14 6 0 13 -4 16 -10z m-42 -17 c-7 -2 -19 -2 -25 0 -7 3 -2 5 12 5
14 0 19 -2 13 -5z m3 -55 c19 -23 19 -23 -1 -7 -11 10 -29 19 -40 22 -19 4
-19 5 1 6 11 0 29 -9 40 -21z m-72 -107 c3 -4 -6 -6 -19 -3 -14 2 -25 6 -25 8
0 8 39 4 44 -5z"/>
</g>
</svg>
